<?xml version="1.0" standalone="no"?>
<!DOCTYPE svg PUBLIC "-//W3C//DTD SVG 20010904//EN"
 "http://www.w3.org/TR/2001/REC-SVG-20010904/DTD/svg10.dtd">
<svg version="1.0" xmlns="http://www.w3.org/2000/svg"
 width="700.000000pt" height="700.000000pt" viewBox="0 0 700.000000 700.000000"
 preserveAspectRatio="xMidYMid meet">
<metadata>
Created by potrace 1.14, written by Peter Selinger 2001-2017
</metadata>
<g transform="translate(0.000000,700.000000) scale(0.100000,-0.100000)"
fill="#000000" stroke="none">
<path d="M2676 6433 c-1 -1 -48 -3 -106 -4 -157 -3 -276 -35 -403 -110 -129
-76 -246 -206 -304 -337 -54 -122 -65 -185 -68 -397 -1 -71 -3 -132 -4 -135 0
-3 -288 -5 -639 -6 -628 0 -688 -2 -767 -25 -124 -36 -266 -152 -323 -265 -66
-131 -62 11 -59 -2024 l2 -1845 22 -54 c75 -183 219 -308 403 -352 45 -10 623
-13 3070 -13 3402 0 3084 -8 3233 79 130 76 231 215 257 354 6 34 10 687 10
1865 0 2008 4 1865 -67 1996 -74 139 -223 247 -378 275 -22 5 -332 9 -690 10
-357 2 -652 3 -655 4 -3 1 -6 58 -6 129 -1 171 -11 264 -39 337 -48 126 -115
226 -207 310 -131 118 -275 182 -453 201 -51 6 -1823 12 -1829 7z m1847 -556
c55 -25 96 -68 117 -122 15 -38 20 -305 5 -306 -27 -3 -2272 -4 -2285 -1 -13
3 -15 25 -14 140 1 76 7 150 13 166 34 86 108 137 210 145 36 3 479 5 983 5
l916 -2 55 -25z"/>
</g>
</svg>
